<svg width="5000" height="3058" viewBox="0 0 5000 3058" fill="none" xmlns="http://www.w3.org/2000/svg">
<path fill-rule="evenodd" clip-rule="evenodd" d="M3066.79 1175.57C3066.58 1175.57 3066.37 1175.57 3066.16 1175.57C2950.22 1175.57 2835.42 1198.41 2728.31 1242.77C2621.19 1287.14 2523.87 1352.17 2441.89 1434.15C2359.91 1516.13 2294.88 1613.46 2250.51 1720.57C2206.14 1827.69 2183.31 1942.49 2183.31 2058.43L3066.16 2058.43H3066.79V1175.57Z" fill="#1C1C1C"/>
<path fill-rule="evenodd" clip-rule="evenodd" d="M3066.79 2258.31H439.525C351.974 2258.31 281 2329.28 281 2416.83C281 2504.38 351.974 2575.36 439.525 2575.36H3066.79V2258.31Z" fill="#1C1C1C"/>
<path fill-rule="evenodd" clip-rule="evenodd" d="M3066.79 2681.88H1052.32C964.772 2681.88 893.798 2752.85 893.798 2840.4C893.798 2927.95 964.772 2998.93 1052.32 2998.93H3066.79V2681.88Z" fill="#1C1C1C"/>
<path fill-rule="evenodd" clip-rule="evenodd" d="M3066.79 59C2804.14 59 2544.06 110.733 2301.4 211.245C2058.74 311.757 1838.26 459.08 1652.54 644.802C1466.82 830.524 1319.49 1051.01 1218.98 1293.67C1118.47 1536.32 1066.74 1796.4 1066.74 2059.05H1286.37C1286.37 1825.25 1332.42 1593.73 1421.9 1377.72C1511.37 1161.71 1642.51 965.434 1807.84 800.106C1973.17 634.779 2169.44 503.634 2385.45 414.16C2601.46 324.685 2832.98 278.634 3066.79 278.634V59Z" fill="#1C1C1C"/>
<path fill-rule="evenodd" clip-rule="evenodd" d="M3203.38 2998.84H4123.54L4718.46 1175.48H3203.38V2998.84Z" fill="#1C1C1C"/>
<path fill-rule="evenodd" clip-rule="evenodd" d="M3624.45 1175.92L3951.11 1181.98L4392.75 255.604C4428.94 179.686 4391.88 102.69 4309.96 83.6288C4228.05 64.5673 4132.3 110.659 4096.11 186.577L3624.45 1175.92Z" fill="#1C1C1C"/>
<mask id="path-7-outside-1_6:86" maskUnits="userSpaceOnUse" x="3138.38" y="66.5931" width="1562" height="1094" fill="black">
<rect fill="white" x="3138.38" y="66.5931" width="1562" height="1094"/>
<path fill-rule="evenodd" clip-rule="evenodd" d="M3203.38 192.884H3203.38C3559.07 192.884 3900.18 290.073 4151.68 463.07C4396.3 631.329 4536.66 857.895 4544.17 1095.28H4633.29C4625.77 841.638 4476.02 599.485 4214.69 419.731C3946.48 235.239 3582.7 131.593 3203.38 131.593H3203.38V192.884Z"/>
</mask>
<path fill-rule="evenodd" clip-rule="evenodd" d="M3203.38 192.884H3203.38C3559.07 192.884 3900.18 290.073 4151.68 463.07C4396.3 631.329 4536.66 857.895 4544.17 1095.28H4633.29C4625.77 841.638 4476.02 599.485 4214.69 419.731C3946.48 235.239 3582.7 131.593 3203.38 131.593H3203.38V192.884Z" fill="#1C1C1C"/>
<path d="M3203.38 192.884L3203.38 127.884H3203.38V192.884ZM3203.38 192.884H3138.38V257.884H3203.38V192.884ZM4151.68 463.07L4114.85 516.624L4151.68 463.07ZM4544.17 1095.28L4479.2 1097.33L4481.19 1160.28H4544.17V1095.28ZM4633.29 1095.28V1160.28H4700.25L4698.26 1093.35L4633.29 1095.28ZM4214.69 419.731L4177.85 473.285L4214.69 419.731ZM3203.38 131.593L3203.38 66.5931H3203.38L3203.38 131.593ZM3203.38 131.593L3203.38 66.5931H3138.38V131.593H3203.38ZM3203.38 127.884H3203.38V257.884H3203.38V127.884ZM4188.52 409.516C3924.47 227.891 3569.99 127.884 3203.38 127.884L3203.38 257.884C3548.14 257.884 3875.89 352.254 4114.85 516.624L4188.52 409.516ZM4609.13 1093.22C4600.81 830.097 4445.5 586.277 4188.52 409.516L4114.85 516.624C4347.1 676.381 4472.51 885.693 4479.2 1097.33L4609.13 1093.22ZM4544.17 1160.28H4633.29V1030.28H4544.17V1160.28ZM4177.85 473.285C4426.8 644.522 4561.56 869.371 4568.32 1097.2L4698.26 1093.35C4689.98 813.905 4525.24 554.447 4251.53 366.177L4177.85 473.285ZM3203.38 196.593C3571.78 196.593 3922.18 297.421 4177.85 473.285L4251.53 366.177C3970.77 173.058 3593.62 66.5931 3203.38 66.5931L3203.38 196.593ZM3203.38 196.593H3203.38L3203.38 66.5931H3203.38L3203.38 196.593ZM3268.38 192.884V131.593H3138.38V192.884H3268.38Z" fill="#1C1C1C" mask="url(#path-7-outside-1_6:86)"/>
</svg>
