<svg width="4438" height="2940" viewBox="0 0 4438 2940" fill="none" xmlns="http://www.w3.org/2000/svg">
<path fill-rule="evenodd" clip-rule="evenodd" d="M2785.79 1116.57C2785.58 1116.57 2785.37 1116.57 2785.16 1116.57C2669.22 1116.57 2554.42 1139.41 2447.31 1183.77C2340.19 1228.14 2242.87 1293.17 2160.89 1375.15C2078.91 1457.13 2013.88 1554.46 1969.51 1661.57C1925.14 1768.69 1902.31 1883.49 1902.31 1999.43L2785.16 1999.43H2785.79V1116.57Z" fill="#FDFF99"/>
<path fill-rule="evenodd" clip-rule="evenodd" d="M2785.79 2199.31H158.525C70.9743 2199.31 0 2270.28 0 2357.83C0 2445.38 70.9742 2516.36 158.525 2516.36H2785.79V2199.31Z" fill="#FDFF99"/>
<path fill-rule="evenodd" clip-rule="evenodd" d="M2785.79 2622.88H771.323C683.772 2622.88 612.798 2693.85 612.798 2781.4C612.798 2868.95 683.772 2939.93 771.323 2939.93H2785.79V2622.88Z" fill="#FDFF99"/>
<path fill-rule="evenodd" clip-rule="evenodd" d="M2785.79 0C2523.14 1.14808e-05 2263.06 51.7329 2020.4 152.245C1777.74 252.757 1557.26 400.08 1371.54 585.802C1185.82 771.524 1038.49 992.008 937.98 1234.67C837.468 1477.32 785.735 1737.4 785.735 2000.05H1005.37C1005.37 1766.25 1051.42 1534.73 1140.9 1318.72C1230.37 1102.71 1361.51 906.434 1526.84 741.106C1692.17 575.779 1888.44 444.634 2104.45 355.16C2320.46 265.685 2551.98 219.634 2785.79 219.634V0Z" fill="#FDFF99"/>
<path fill-rule="evenodd" clip-rule="evenodd" d="M2922.38 2939.84H3842.54L4437.46 1116.48H2922.38V2939.84Z" fill="#FDFF99"/>
<path fill-rule="evenodd" clip-rule="evenodd" d="M3343.45 1116.92L3670.11 1122.98L4111.75 196.604C4147.94 120.686 4110.88 43.69 4028.96 24.6286C3947.05 5.56711 3851.3 51.6587 3815.11 127.577L3343.45 1116.92Z" fill="#FDFF99"/>
<mask id="path-7-outside-1_12:39" maskUnits="userSpaceOnUse" x="2857.38" y="7.59308" width="1562" height="1094" fill="black">
<rect fill="white" x="2857.38" y="7.59308" width="1562" height="1094"/>
<path fill-rule="evenodd" clip-rule="evenodd" d="M2922.38 133.884H2922.38C3278.07 133.884 3619.18 231.073 3870.68 404.07C4115.3 572.329 4255.66 798.895 4263.17 1036.28H4352.29C4344.77 782.638 4195.02 540.485 3933.69 360.731C3665.48 176.239 3301.7 72.5931 2922.38 72.5931L2922.38 72.5931V133.884Z"/>
</mask>
<path fill-rule="evenodd" clip-rule="evenodd" d="M2922.38 133.884H2922.38C3278.07 133.884 3619.18 231.073 3870.68 404.07C4115.3 572.329 4255.66 798.895 4263.17 1036.28H4352.29C4344.77 782.638 4195.02 540.485 3933.69 360.731C3665.48 176.239 3301.7 72.5931 2922.38 72.5931L2922.38 72.5931V133.884Z" fill="#FDFF99"/>
<path d="M2922.38 133.884L2922.38 68.8835H2922.38V133.884ZM2922.38 133.884H2857.38V198.884H2922.38V133.884ZM3870.68 404.07L3833.85 457.624L3870.68 404.07ZM4263.17 1036.28L4198.2 1038.33L4200.19 1101.28H4263.17V1036.28ZM4352.29 1036.28V1101.28H4419.25L4417.26 1034.35L4352.29 1036.28ZM3933.69 360.731L3896.85 414.285L3933.69 360.731ZM2922.38 72.5931L2922.38 7.59308H2922.38L2922.38 72.5931ZM2922.38 72.5931L2922.38 7.59308H2857.38V72.5931H2922.38ZM2922.38 68.8835H2922.38V198.884H2922.38V68.8835ZM3907.52 350.516C3643.47 168.891 3288.99 68.8836 2922.38 68.8835L2922.38 198.884C3267.14 198.884 3594.89 293.254 3833.85 457.624L3907.52 350.516ZM4328.13 1034.22C4319.81 771.097 4164.5 527.277 3907.52 350.516L3833.85 457.624C4066.1 617.381 4191.51 826.693 4198.2 1038.33L4328.13 1034.22ZM4263.17 1101.28H4352.29V971.278H4263.17V1101.28ZM3896.85 414.285C4145.8 585.522 4280.56 810.371 4287.32 1038.2L4417.26 1034.35C4408.98 754.905 4244.24 495.447 3970.53 307.177L3896.85 414.285ZM2922.38 137.593C3290.78 137.593 3641.18 238.421 3896.85 414.285L3970.53 307.177C3689.77 114.058 3312.62 7.5931 2922.38 7.59308L2922.38 137.593ZM2922.38 137.593H2922.38L2922.38 7.59308H2922.38L2922.38 137.593ZM2987.38 133.884V72.5931H2857.38V133.884H2987.38Z" fill="#FDFF99" mask="url(#path-7-outside-1_12:39)"/>
</svg>
