<svg width="4500" height="4500" viewBox="0 0 4500 4500" fill="none" xmlns="http://www.w3.org/2000/svg">
<path fill-rule="evenodd" clip-rule="evenodd" d="M2816.79 1896.57C2816.58 1896.57 2816.37 1896.57 2816.16 1896.57C2700.22 1896.57 2585.42 1919.41 2478.31 1963.77C2371.19 2008.14 2273.87 2073.17 2191.89 2155.15C2109.91 2237.13 2044.88 2334.46 2000.51 2441.57C1956.14 2548.69 1933.31 2663.49 1933.31 2779.43L2816.16 2779.43H2816.79V1896.57Z" fill="#FB5555"/>
<path fill-rule="evenodd" clip-rule="evenodd" d="M2816.79 2979.31H189.525C101.974 2979.31 31 3050.28 31 3137.83C31 3225.38 101.974 3296.36 189.525 3296.36H2816.79V2979.31Z" fill="#FB5555"/>
<path fill-rule="evenodd" clip-rule="evenodd" d="M2816.79 3402.88H802.323C714.772 3402.88 643.798 3473.85 643.798 3561.4C643.798 3648.95 714.772 3719.93 802.323 3719.93H2816.79V3402.88Z" fill="#FB5555"/>
<path fill-rule="evenodd" clip-rule="evenodd" d="M2816.79 780C2554.14 780 2294.06 831.733 2051.4 932.245C1808.74 1032.76 1588.26 1180.08 1402.54 1365.8C1216.82 1551.52 1069.49 1772.01 968.98 2014.67C868.468 2257.32 816.735 2517.4 816.735 2780.05H1036.37C1036.37 2546.25 1082.42 2314.73 1171.9 2098.72C1261.37 1882.71 1392.51 1686.43 1557.84 1521.11C1723.17 1355.78 1919.44 1224.63 2135.45 1135.16C2351.46 1045.69 2582.98 999.634 2816.79 999.634V780Z" fill="#FB5555"/>
<path fill-rule="evenodd" clip-rule="evenodd" d="M2953.38 3719.84H3873.54L4468.46 1896.48H2953.38V3719.84Z" fill="#FB5555"/>
<path fill-rule="evenodd" clip-rule="evenodd" d="M3374.45 1896.92L3701.11 1902.98L4142.75 976.604C4178.94 900.686 4141.88 823.69 4059.96 804.629C3978.05 785.567 3882.3 831.659 3846.11 907.577L3374.45 1896.92Z" fill="#FB5555"/>
<mask id="path-7-outside-1_6:86" maskUnits="userSpaceOnUse" x="2888.38" y="787.593" width="1562" height="1094" fill="black">
<rect fill="white" x="2888.38" y="787.593" width="1562" height="1094"/>
<path fill-rule="evenodd" clip-rule="evenodd" d="M2953.38 913.884H2953.38C3309.07 913.884 3650.18 1011.07 3901.68 1184.07C4146.3 1352.33 4286.66 1578.9 4294.17 1816.28H4383.29C4375.77 1562.64 4226.02 1320.48 3964.69 1140.73C3696.48 956.239 3332.7 852.593 2953.38 852.593H2953.38V913.884Z"/>
</mask>
<path fill-rule="evenodd" clip-rule="evenodd" d="M2953.38 913.884H2953.38C3309.07 913.884 3650.18 1011.07 3901.68 1184.07C4146.3 1352.33 4286.66 1578.9 4294.17 1816.28H4383.29C4375.77 1562.64 4226.02 1320.48 3964.69 1140.73C3696.48 956.239 3332.7 852.593 2953.38 852.593H2953.38V913.884Z" fill="#FB5555"/>
<path d="M2953.38 913.884L2953.38 848.884H2953.38V913.884ZM2953.38 913.884H2888.38V978.884H2953.38V913.884ZM3901.68 1184.07L3864.85 1237.62L3901.68 1184.07ZM4294.17 1816.28L4229.2 1818.33L4231.19 1881.28H4294.17V1816.28ZM4383.29 1816.28V1881.28H4450.25L4448.26 1814.35L4383.29 1816.28ZM3964.69 1140.73L3927.85 1194.29L3964.69 1140.73ZM2953.38 852.593L2953.38 787.593H2953.38V852.593ZM2953.38 852.593V787.593H2888.38V852.593H2953.38ZM2953.38 848.884H2953.38V978.884H2953.38V848.884ZM3938.52 1130.52C3674.47 948.891 3319.99 848.884 2953.38 848.884L2953.38 978.884C3298.14 978.884 3625.89 1073.25 3864.85 1237.62L3938.52 1130.52ZM4359.13 1814.22C4350.81 1551.1 4195.5 1307.28 3938.52 1130.52L3864.85 1237.62C4097.1 1397.38 4222.51 1606.69 4229.2 1818.33L4359.13 1814.22ZM4294.17 1881.28H4383.29V1751.28H4294.17V1881.28ZM3927.85 1194.29C4176.8 1365.52 4311.56 1590.37 4318.32 1818.2L4448.26 1814.35C4439.98 1534.9 4275.24 1275.45 4001.53 1087.18L3927.85 1194.29ZM2953.38 917.593C3321.78 917.593 3672.18 1018.42 3927.85 1194.29L4001.53 1087.18C3720.77 894.058 3343.62 787.593 2953.38 787.593L2953.38 917.593ZM2953.38 917.593H2953.38V787.593H2953.38V917.593ZM3018.38 913.884V852.593H2888.38V913.884H3018.38Z" fill="#FB5555" mask="url(#path-7-outside-1_6:86)"/>
</svg>
